<?xml version="1.0" encoding="iso-8859-1"?>
<!-- Generator: Adobe Illustrator 19.0.0, SVG Export Plug-In . SVG Version: 6.00 Build 0)  -->
<svg version="1.1" id="Capa_1" xmlns="http://www.w3.org/2000/svg" xmlns:xlink="http://www.w3.org/1999/xlink" x="0px" y="0px"
	 viewBox="0 0 407.51 407.51" style="enable-background:new 0 0 407.51 407.51;" xml:space="preserve">
<g>
	<g>
		<g>
			<path d="M203.755,65.306c-47.321,0-85.682,38.361-85.682,85.682c0,47.321,38.361,85.682,85.682,85.682
				c47.202-0.285,85.396-38.48,85.682-85.682C289.437,103.667,251.076,65.306,203.755,65.306z M203.755,215.772
				c-35.779,0-64.784-29.005-64.784-64.784c0-35.779,29.005-64.784,64.784-64.784c35.661,0.284,64.499,29.123,64.784,64.784
				C268.539,186.767,239.534,215.772,203.755,215.772z"/>
			<path d="M385.045,386.613H212.637l103.445-108.147c62.206-64.367,62.896-166.241,1.567-231.445
				C288.892,16.914,249.046-0.081,207.412,0c-42.699-0.021-83.52,17.555-112.849,48.588
				c-62.206,64.367-62.896,166.241-1.567,231.445l101.878,106.58H22.465c-5.771,0-10.449,4.678-10.449,10.449
				s4.678,10.449,10.449,10.449h362.58c5.771,0,10.449-4.678,10.449-10.449S390.816,386.613,385.045,386.613z M107.625,265.927
				c-53.29-55.38-52.245-146.286,1.567-202.71c25.612-26.893,61.084-42.176,98.22-42.318c36.122-0.164,70.712,14.579,95.608,40.751
				c53.29,55.902,52.245,146.808-1.567,202.71l-97.698,101.878L107.625,265.927z"/>
		</g>
	</g>
</g>
<g>
</g>
<g>
</g>
<g>
</g>
<g>
</g>
<g>
</g>
<g>
</g>
<g>
</g>
<g>
</g>
<g>
</g>
<g>
</g>
<g>
</g>
<g>
</g>
<g>
</g>
<g>
</g>
<g>
</g>
</svg>
