<svg version="1.1" id="Layer_1" xmlns="http://www.w3.org/2000/svg" xmlns:xlink="http://www.w3.org/1999/xlink" x="0px" y="0px"
	 width="53.5px" height="53.5px" viewBox="0 0 53.5 53.5" enable-background="new 0 0 53.5 53.5" xml:space="preserve">
<g>
	<path fill="#4F749D" d="M53.4,26.7c0,14.8-12,26.7-26.7,26.7C12,53.4,0,41.5,0,26.7C0,12,12,0,26.7,0C41.5,0,53.4,12,53.4,26.7
		L53.4,26.7z M53.4,26.7"/>
	<path fill-rule="evenodd" clip-rule="evenodd" fill="#FFFFFF" d="M25.2,37.5h2.1c0,0,0.6-0.1,1-0.4c0.3-0.3,0.3-0.9,0.3-0.9
		s0-2.8,1.3-3.2c1.3-0.4,2.9,2.7,4.7,3.9c1.3,0.9,2.3,0.7,2.3,0.7l4.7-0.1c0,0,2.5-0.2,1.3-2.1c-0.1-0.2-0.7-1.4-3.5-4
		c-2.9-2.7-2.5-2.3,1-7c2.2-2.9,3-4.6,2.7-5.4c-0.3-0.7-1.8-0.5-1.8-0.5l-5.3,0c0,0-0.4-0.1-0.7,0.1c-0.3,0.2-0.5,0.6-0.5,0.6
		s-0.8,2.2-1.9,4.1c-2.3,4-3.3,4.2-3.7,4c-0.9-0.6-0.7-2.3-0.7-3.6c0-3.9,0.6-5.5-1.1-5.9c-0.6-0.1-1-0.2-2.5-0.2
		c-1.9,0-3.5,0-4.4,0.4c-0.6,0.3-1.1,0.9-0.8,1c0.3,0,1.1,0.2,1.6,0.8c0.5,0.7,0.5,2.4,0.5,2.4s0.3,4.6-0.7,5.1
		c-0.7,0.4-1.7-0.4-3.8-4c-1.1-1.9-1.9-3.9-1.9-3.9S15.3,19,15,18.8c-0.3-0.2-0.8-0.3-0.8-0.3l-5,0c0,0-0.8,0-1,0.3
		c-0.2,0.3,0,0.9,0,0.9s3.9,9.2,8.4,13.8C20.6,37.8,25.2,37.5,25.2,37.5L25.2,37.5z M25.2,37.5"/>
</g>
</svg>


