<?xml version="1.0" encoding="UTF-8" standalone="no"?>
<svg
   xmlns:figma="http://www.figma.com/figma/ns"
   xmlns:dc="http://purl.org/dc/elements/1.1/"
   xmlns:cc="http://creativecommons.org/ns#"
   xmlns:rdf="http://www.w3.org/1999/02/22-rdf-syntax-ns#"
   xmlns:svg="http://www.w3.org/2000/svg"
   xmlns="http://www.w3.org/2000/svg"
   xmlns:xlink="http://www.w3.org/1999/xlink"
   xmlns:sodipodi="http://sodipodi.sourceforge.net/DTD/sodipodi-0.dtd"
   xmlns:inkscape="http://www.inkscape.org/namespaces/inkscape"
   width="55"
   height="55"
   viewBox="0 0 55 55"
   version="2.0"
   id="svg3702"
   sodipodi:docname="icon_whatsapp.svg"
   inkscape:version="0.92.1 r15371">
  <metadata
     id="metadata3706">
    <rdf:RDF>
      <cc:Work
         rdf:about="">
        <dc:format>image/svg+xml</dc:format>
        <dc:type
           rdf:resource="http://purl.org/dc/dcmitype/StillImage" />
        <dc:title>icon_whatsapp.svg</dc:title>
      </cc:Work>
    </rdf:RDF>
  </metadata>
  <sodipodi:namedview
     pagecolor="#ffffff"
     bordercolor="#666666"
     borderopacity="1"
     objecttolerance="10"
     gridtolerance="10"
     guidetolerance="10"
     inkscape:pageopacity="0"
     inkscape:pageshadow="2"
     inkscape:window-width="1920"
     inkscape:window-height="1017"
     id="namedview3704"
     showgrid="false"
     inkscape:zoom="12.114286"
     inkscape:cx="12.991352"
     inkscape:cy="23.922899"
     inkscape:window-x="-8"
     inkscape:window-y="-8"
     inkscape:window-maximized="1"
     inkscape:current-layer="Canvas" />
  <title
     id="title3680">icon_whatsapp.svg</title>
  <desc
     id="desc3682">Created using Figma 0.90</desc>
  <g
     id="Canvas"
     transform="matrix(1.5428571,0,0,1.5428571,-388.4699,38.911052)"
     figma:type="canvas">
    <g
       id="icon_whatsapp"
       style="mix-blend-mode:normal"
       figma:type="frame"
       transform="translate(0.16050839,0.16050839)">
      <g
         id="Vector"
         style="mix-blend-mode:normal"
         figma:type="vector">
        <use
           xlink:href="#path0_fill"
           transform="translate(252,-25)"
           style="mix-blend-mode:normal;fill:url(#paint0_linear)"
           id="use3684"
           x="0"
           y="0"
           width="100%"
           height="100%" />
      </g>
      <g
         id="g3689"
         style="mix-blend-mode:normal"
         figma:type="vector">
        <use
           xlink:href="#path1_fill"
           transform="translate(260.697,-15.6669)"
           style="mix-blend-mode:normal;fill:#ffffff"
           id="use3687"
           x="0"
           y="0"
           width="100%"
           height="100%" />
      </g>
    </g>
  </g>
  <defs
     id="defs3700">
    <linearGradient
       id="paint0_linear"
       x1="0"
       y1="0"
       x2="1"
       y2="0"
       gradientUnits="userSpaceOnUse"
       gradientTransform="matrix(0,35,-34.9161,0,34.9161,0)">
      <stop
         offset="0"
         stop-color="#61D36C"
         id="stop3693" />
      <stop
         offset="1"
         stop-color="#2AB540"
         id="stop3695" />
    </linearGradient>
    <path
       id="path0_fill"
       d="m 17.5311,0 c 4.6504,0.0020521 9.0151,1.80825 12.2977,5.08624 3.2821,3.27822 5.0889,7.63576 5.0873,12.27016 -0.0041,9.5621 -7.8037,17.3433 -17.385,17.3433 H 17.531 17.5237 C 14.6142,34.6985 11.7553,33.9703 9.21606,32.5884 L 0,35 2.46636,26.013 C 0.945145,23.3829 0.144814,20.3991 0.145944,17.3424 0.149796,7.77984 7.94827,0 17.5311,0 Z"
       inkscape:connector-curvature="0" />
    <path
       id="path1_fill"
       d="M 4.48878,0.759171 C 4.16341,0.0372639 3.82084,0.0228124 3.51128,0.0101819 3.25809,-6.56688e-4 2.96823,8.37383e-6 2.67883,8.37383e-6 2.3892,8.37383e-6 1.91856,0.108625 1.52055,0.542399 1.12231,0.976173 4.2426e-8,2.0248 4.2426e-8,4.15751 4.2426e-8,6.29045 1.55675,8.35137 1.77374,8.64083 1.99096,8.92986 4.77887,13.4464 9.19411,15.184 c 3.66949,1.444 4.41619,1.1567 5.21269,1.0845 0.7964,-0.0723 2.5699,-1.0484 2.932,-2.0607 0.362,-1.0121 0.362,-1.8796 0.2534,-2.0609 -0.1086,-0.1807 -0.3982,-0.2891 -0.8327,-0.5058 -0.4344,-0.2168 -2.57,-1.2657 -2.9682,-1.4102 -0.3982,-0.1445 -0.6879,-0.2167 -0.9775,0.2173 -0.2896,0.4335 -1.1216,1.4096 -1.3751,1.6987 -0.2534,0.2897 -0.5068,0.3258 -0.9413,0.109 C 10.063,12.0385 8.66394,11.5812 7.00426,10.1044 5.71292,8.95556 4.84108,7.5366 4.58766,7.10262 4.33423,6.66908 4.56049,6.43425 4.77841,6.21814 4.97344,6.02394 5.21285,5.71211 5.43007,5.45898 5.64683,5.20585 5.71923,5.0252 5.86405,4.73617 6.00886,4.44668 5.93646,4.19358 5.82784,3.97681 5.71923,3.76004 4.87503,1.61631 4.48878,0.759171 Z"
       inkscape:connector-curvature="0"
       style="fill-rule:evenodd" />
  </defs>
</svg>
