<svg version="1.1" id="Layer_1" xmlns="http://www.w3.org/2000/svg" xmlns:xlink="http://www.w3.org/1999/xlink" x="0px" y="0px"
	 width="54.2px" height="54.1px" viewBox="0 0 54.2 54.1" enable-background="new 0 0 54.2 54.1" xml:space="preserve">
<g>
	<path fill="#405C98" d="M53.8,26.9c0,14.8-12,26.9-26.9,26.9C12,53.8,0,41.7,0,26.9C0,12,12,0,26.9,0C41.7,0,53.8,12,53.8,26.9
		L53.8,26.9z M53.8,26.9"/>
	<path fill="#FFFFFF" d="M33.6,27.9h-4.8v17.6h-7.3V27.9h-3.5v-6.2h3.5v-4c0-2.9,1.4-7.3,7.3-7.3l5.4,0v6h-3.9
		c-0.6,0-1.5,0.3-1.5,1.7v3.6h5.4L33.6,27.9z M33.6,27.9"/>
</g>
</svg>
