<svg version="1.1" id="Layer_1" xmlns="http://www.w3.org/2000/svg" xmlns:xlink="http://www.w3.org/1999/xlink" x="0px" y="0px"
	 width="54.2px" height="54.3px" viewBox="0 0 54.2 54.3" enable-background="new 0 0 54.2 54.3" xml:space="preserve">
<g>
	<g>
		<defs>
			<rect id="SVGID_1_" x="0" y="0" width="53.8" height="53.8"/>
		</defs>
		<clipPath id="SVGID_2_">
			<use xlink:href="#SVGID_1_"  overflow="visible"/>
		</clipPath>
		<path clip-path="url(#SVGID_2_)" fill="#70499D" d="M53.8,26.9c0,14.8-12,26.9-26.9,26.9S0,41.7,0,26.9S12,0,26.9,0
			S53.8,12,53.8,26.9"/>
	</g>
	<g>
		<defs>
			<rect id="SVGID_3_" x="0" y="0" width="53.8" height="53.8"/>
		</defs>
		<clipPath id="SVGID_4_">
			<use xlink:href="#SVGID_3_"  overflow="visible"/>
		</clipPath>
		<path clip-path="url(#SVGID_4_)" fill="#FFFFFF" d="M41.8,20L41.8,20c-0.7-3-4.1-6.2-7.1-6.9l0,0c-4.9-0.9-9.9-0.9-14.9,0l0,0
			c-3,0.7-6.4,3.9-7.1,6.8l0,0c-0.9,4.2-0.9,8.4,0,12.5l0,0c0.7,2.8,3.8,5.9,6.7,6.7v3.3c0,1.2,1.5,1.8,2.3,0.9L25,40
			c0.7,0,1.5,0.1,2.2,0.1c2.5,0,5-0.2,7.4-0.7l0,0c3-0.7,6.4-3.9,7.1-6.8l0,0C42.7,28.3,42.7,24.1,41.8,20 M39.2,31.9
			c-0.5,1.9-3,4.4-5,4.8c-2.6,0.5-5.3,0.7-7.9,0.6c-0.1,0-0.1,0-0.1,0.1c-0.4,0.4-2.5,2.5-2.5,2.5L21,42.6c-0.2,0.2-0.5,0.1-0.5-0.2
			v-5.5c0-0.1-0.1-0.2-0.2-0.2h0c-2-0.4-4.5-2.9-5-4.8c-0.8-3.8-0.8-7.6,0-11.3c0.5-1.9,3-4.4,5-4.8c4.6-0.9,9.2-0.9,13.8,0
			c2,0.4,4.5,2.9,5,4.8C40,24.3,40,28.1,39.2,31.9"/>
	</g>
	<g>
		<defs>
			<rect id="SVGID_5_" x="0" y="0" width="53.8" height="53.8"/>
		</defs>
		<clipPath id="SVGID_6_">
			<use xlink:href="#SVGID_5_"  overflow="visible"/>
		</clipPath>
		<path clip-path="url(#SVGID_6_)" fill="#FFFFFF" d="M31.6,34.4c-0.3-0.1-0.6-0.2-0.9-0.3c-2.8-1.2-5.4-2.7-7.5-5
			c-1.2-1.3-2.1-2.8-2.9-4.4c-0.4-0.7-0.7-1.5-1-2.3c-0.3-0.7,0.1-1.4,0.6-2c0.4-0.5,1-0.9,1.5-1.2c0.5-0.2,0.9-0.1,1.2,0.3
			c0.7,0.8,1.4,1.7,1.9,2.7c0.3,0.6,0.2,1.3-0.4,1.7c-0.1,0.1-0.3,0.2-0.4,0.3c-0.1,0.1-0.2,0.2-0.3,0.3c-0.1,0.2-0.2,0.5-0.1,0.8
			c0.7,2,2,3.6,4,4.4c0.3,0.1,0.7,0.3,1,0.2c0.6-0.1,0.8-0.8,1.3-1.1c0.4-0.4,1-0.4,1.4-0.1c0.5,0.3,0.9,0.6,1.4,0.9
			c0.4,0.3,0.9,0.6,1.3,1c0.4,0.3,0.5,0.8,0.3,1.3c-0.4,0.9-1,1.6-1.8,2C32.1,34.3,31.9,34.4,31.6,34.4
			C31.3,34.3,31.9,34.4,31.6,34.4"/>
	</g>
	<g>
		<defs>
			<rect id="SVGID_7_" x="0" y="0" width="53.8" height="53.8"/>
		</defs>
		<clipPath id="SVGID_8_">
			<use xlink:href="#SVGID_7_"  overflow="visible"/>
		</clipPath>
		<path clip-path="url(#SVGID_8_)" fill="#FFFFFF" d="M27.2,18.4c3.7,0.1,6.7,2.6,7.4,6.2c0.1,0.6,0.2,1.3,0.2,1.9
			c0,0.3-0.1,0.5-0.4,0.5c-0.3,0-0.4-0.2-0.4-0.5c0-0.5-0.1-1.1-0.1-1.6c-0.4-2.8-2.6-5-5.3-5.5c-0.4-0.1-0.8-0.1-1.3-0.1
			c-0.3,0-0.6,0-0.7-0.4c0-0.3,0.2-0.5,0.4-0.5C27.1,18.4,27.2,18.4,27.2,18.4C30.9,18.5,27.2,18.4,27.2,18.4"/>
	</g>
	<g>
		<defs>
			<rect id="SVGID_9_" x="0" y="0" width="53.8" height="53.8"/>
		</defs>
		<clipPath id="SVGID_10_">
			<use xlink:href="#SVGID_9_"  overflow="visible"/>
		</clipPath>
		<path clip-path="url(#SVGID_10_)" fill="#FFFFFF" d="M32.9,25.7c0,0,0,0.2,0,0.3c-0.1,0.4-0.7,0.4-0.8,0c0-0.1,0-0.2,0-0.4
			c0-0.8-0.2-1.6-0.6-2.2c-0.4-0.7-1-1.3-1.8-1.6c-0.4-0.2-0.9-0.3-1.4-0.4c-0.2,0-0.4-0.1-0.6-0.1c-0.3,0-0.4-0.2-0.4-0.5
			c0-0.2,0.2-0.4,0.4-0.4c0.8,0,1.7,0.2,2.4,0.6c1.5,0.8,2.4,2.1,2.7,3.8c0,0.1,0,0.2,0,0.2C32.8,25.2,32.8,25.4,32.9,25.7
			C32.9,25.7,32.8,25.4,32.9,25.7"/>
	</g>
	<g>
		<defs>
			<rect id="SVGID_11_" x="0" y="0" width="53.8" height="53.8"/>
		</defs>
		<clipPath id="SVGID_12_">
			<use xlink:href="#SVGID_11_"  overflow="visible"/>
		</clipPath>
		<path clip-path="url(#SVGID_12_)" fill="#FFFFFF" d="M30.6,25.6c-0.3,0-0.5-0.2-0.5-0.4c0-0.2,0-0.4-0.1-0.6
			c-0.1-0.4-0.3-0.7-0.6-1c-0.1-0.1-0.3-0.2-0.5-0.2c-0.2-0.1-0.5,0-0.7-0.1c-0.2-0.1-0.4-0.3-0.3-0.5c0-0.2,0.2-0.4,0.5-0.4
			c1.4,0.1,2.5,0.8,2.6,2.5c0,0.1,0,0.2,0,0.4C30.8,25.5,30.7,25.6,30.6,25.6C30.3,25.6,30.7,25.6,30.6,25.6"/>
	</g>
</g>
</svg>
