<svg id="textback_icon_tb_close_svg" xmlns="http://www.w3.org/2000/svg" xmlns:xlink="http://www.w3.org/1999/xlink" x="0px" y="0px"
   width="53.758px" height="53.758px" viewBox="0 0 53.758 53.758" enable-background="new 0 0 53.758 53.758"
   xml:space="preserve">
  <g>
      <path clip-path="url(#SVGID_2_)" fill="#FFFFFF" d="M29.35,26.781l7.582-7.583c0.698-0.697,0.698-1.829,0-2.527
          c-0.697-0.698-1.829-0.698-2.526,0l-7.582,7.583l-7.583-7.583c-0.699-0.698-1.829-0.698-2.528,0c-0.698,0.698-0.698,1.83,0,2.527
          l7.582,7.583l-7.582,7.582c-0.698,0.698-0.698,1.83,0,2.527c0.699,0.698,1.829,0.698,2.528,0l7.583-7.582l7.582,7.582
          c0.697,0.698,1.829,0.698,2.526,0c0.698-0.697,0.698-1.829,0-2.527L29.35,26.781z"/>
  </g>
</svg>