<svg version="1.1" id="Layer_1" xmlns="http://www.w3.org/2000/svg" xmlns:xlink="http://www.w3.org/1999/xlink" x="0px" y="0px"
	 viewBox="0 0 479 479.1" enable-background="new 0 0 479 479.1" xml:space="preserve">
<g>
	<g>
		<g>
			<path fill="#FFFFFF" d="M315.2,147.3c-24.5-19.4-57.1-30-91.7-30c-34.6,0-67.2,10.7-91.7,30c-24.8,19.6-38.4,45.6-38.4,73.4
				c0,16.7,5.1,33.3,14.8,48c8.9,13.6,21.8,25.5,37.2,34.8c-0.7,5-4.5,19.6-25.2,37c-1.1,0.9-1.5,2.3-1.1,3.7
				c0.4,1.3,1.5,2.3,2.9,2.5c0.1,0,3.1,0.4,8.5,0.4c15.2,0,46.2-3,84.2-23.1c2.9,0.2,5.9,0.2,8.8,0.2c34.6,0,67.2-10.7,91.7-30
				c24.8-19.6,38.4-45.6,38.4-73.4C353.6,192.9,340,166.9,315.2,147.3L315.2,147.3z M315.2,147.3"/>
			<path fill="#000000" fill-opacity=".2" d="M130.5,352c-5.6,0-8.8-0.4-9.1-0.4c-3.3-0.4-6.1-2.8-7.1-6c-1-3.2,0.1-6.7,2.7-8.9
				c15.9-13.5,21.1-24.9,22.8-30.8c-14.7-9.3-27-21.2-35.8-34.4c-10.2-15.5-15.6-33.1-15.6-50.8c0-29.4,14.3-56.8,40.3-77.3
				c25.4-20.1,59.1-31.1,94.8-31.1c35.7,0,69.4,11,94.8,31.1c26,20.5,40.3,48,40.3,77.3c0,29.3-14.3,56.8-40.3,77.3
				c-25.4,20.1-59.1,31.1-94.8,31.1c-2.5,0-5.1-0.1-7.7-0.2C177.5,349,146,352,130.5,352z M126.2,341.9c1.2,0.1,2.6,0.1,4.3,0.1
				c14.7,0,44.8-2.9,81.9-22.5l1.2-0.6l1.4,0.1c2.9,0.2,5.7,0.2,8.5,0.2c33.5,0,65-10.3,88.6-28.9c23.6-18.6,36.5-43.3,36.5-69.5
				c0-26.2-13-50.9-36.5-69.5c-23.7-18.7-55.1-28.9-88.6-28.9c-33.5,0-65,10.3-88.6,28.9c-23.5,18.6-36.5,43.3-36.5,69.5
				c0,15.7,4.8,31.4,14,45.3c8.5,12.9,20.8,24.4,35.6,33.2l2.9,1.7l-0.5,3.3C149.6,309.9,145.6,324.6,126.2,341.9z"/>
		</g>
	</g>
	<g>
		<g>
			<path fill="#FFFFFF" d="M254.5,243.8c-14.6,11.6-22.7,27-22.7,43.4c0,16.4,8.1,31.8,22.7,43.4c14.5,11.4,33.8,17.7,54.2,17.7
				c1.7,0,3.5,0,5.2-0.1c22.4,11.9,40.8,13.7,49.8,13.7c3.1,0,4.9-0.2,5-0.2c0.8-0.1,1.5-0.7,1.7-1.5c0.2-0.8,0-1.6-0.7-2.2
				c-12.2-10.3-14.5-18.9-14.9-21.9c9.1-5.4,16.7-12.5,22-20.5c5.7-8.7,8.8-18.5,8.8-28.4c0-16.4-8.1-31.8-22.7-43.4
				c-14.5-11.4-33.8-17.7-54.2-17.7C288.3,226,269,232.3,254.5,243.8L254.5,243.8z M254.5,243.8"/>
			<path fill="#000000" fill-opacity=".2" d="M363.7,366.8c-9.3,0-28-1.8-50.9-13.6c-1.4,0.1-2.7,0.1-4.1,0.1c-21.6,0-41.9-6.7-57.3-18.8
				c-15.9-12.5-24.6-29.3-24.6-47.3c0-18,8.7-34.8,24.6-47.3c15.4-12.1,35.7-18.8,57.3-18.8c21.6,0,41.9,6.7,57.3,18.8
				c15.9,12.5,24.6,29.3,24.6,47.3c0,10.9-3.3,21.6-9.6,31.1c-5.1,7.7-12.1,14.5-20.4,20.1c1.3,3.4,4.5,9.1,12.3,15.8
				c2.1,1.8,3,4.7,2.2,7.4c-0.8,2.7-3.1,4.6-5.9,5C369.1,366.6,367.1,366.8,363.7,366.8z M315.1,343.1l1.2,0.6
				c19.6,10.4,35.8,12.7,44.9,13c-8.8-9.2-10.8-16.8-11.3-20l-0.5-3.3l2.9-1.7c8.5-5.1,15.5-11.6,20.4-19c5.2-7.9,7.9-16.7,7.9-25.6
				c0-14.9-7.4-28.9-20.8-39.5c-13.6-10.8-31.8-16.7-51.1-16.7c-19.3,0-37.5,5.9-51.1,16.7c-13.4,10.6-20.8,24.6-20.8,39.5
				c0,14.9,7.4,28.9,20.8,39.5c13.6,10.7,31.8,16.7,51.1,16.7c1.6,0,3.3,0,4.9-0.1L315.1,343.1z"/>
		</g>
	</g>
</g>
</svg>
