<svg version="1.1" id="Layer_1" xmlns="http://www.w3.org/2000/svg" xmlns:xlink="http://www.w3.org/1999/xlink" x="0px" y="0px"
	 width="54.2px" height="54.3px" viewBox="0 0 54.2 54.3" enable-background="new 0 0 54.2 54.3" xml:space="preserve">
<g>
	<g>
		<defs>
			<rect id="SVGID_1_" x="0" y="0" width="53.8" height="53.8"/>
		</defs>
		<clipPath id="SVGID_2_">
			<use xlink:href="#SVGID_1_"  overflow="visible"/>
		</clipPath>
		<path clip-path="url(#SVGID_2_)" fill="#589DD2" d="M53.8,26.9c0,14.8-12,26.9-26.9,26.9S0,41.7,0,26.9S12,0,26.9,0
			S53.8,12,53.8,26.9"/>
	</g>
	<g>
		<defs>
			<rect id="SVGID_3_" x="0" y="0" width="53.8" height="53.8"/>
		</defs>
		<clipPath id="SVGID_4_">
			<use xlink:href="#SVGID_3_"  overflow="visible"/>
		</clipPath>
		<path clip-path="url(#SVGID_4_)" fill="#FFFFFF" d="M39.4,13.8L9.5,25.5c-1,0.4-0.9,1.8,0.1,2.1l7.6,2.2l2.8,9
			c0.3,0.9,1.5,1.2,2.2,0.5l3.9-4l7.7,5.7c0.9,0.7,2.3,0.2,2.5-1l5.1-24.4C41.7,14.4,40.5,13.4,39.4,13.8 M35.6,19.2L21.7,31.5
			c-0.1,0.1-0.2,0.3-0.2,0.5L21,36.7c0,0.2-0.2,0.2-0.3,0l-2.2-7.1c-0.1-0.3,0-0.7,0.3-0.9l16.4-10.2C35.6,18.4,36,18.9,35.6,19.2"
			/>
	</g>
</g>
</svg>
