<svg xmlns="http://www.w3.org/2000/svg" width="512" height="512" viewBox="0 0 97.8 97.8"><style>.a{fill:#ee8208;}</style><path d="M48.9 40.5c4.7 0 8.4-3.8 8.4-8.4 0-4.7-3.7-8.4-8.4-8.4 -4.7 0-8.5 3.8-8.4 8.5C40.5 36.8 44.2 40.5 48.9 40.5z" class="a"/><path d="M48.9 0C21.9 0 0 21.9 0 48.9S21.9 97.8 48.9 97.8 97.8 75.9 97.8 48.9 75.9 0 48.9 0zM48.9 14.9c9.5 0 17.2 7.8 17.1 17.4 0 9.4-7.8 17-17.3 17 -9.4 0-17.1-7.8-17.1-17.3C31.7 22.5 39.4 14.8 48.9 14.9zM68.2 56.1c-2.1 2.2-4.6 3.7-7.5 4.8 -2.7 1-5.6 1.6-8.5 1.9 0.4 0.5 0.6 0.7 0.9 1 3.9 3.9 7.9 7.9 11.8 11.8 1.3 1.3 1.6 3 0.9 4.6 -0.8 1.7-2.6 2.8-4.4 2.7 -1.1-0.1-2-0.6-2.8-1.4 -3-3-6-5.9-8.9-8.9 -0.8-0.9-1.2-0.7-2 0.1 -3 3.1-6 6.1-9 9.1 -1.4 1.3-3 1.6-4.6 0.8 -1.7-0.8-2.8-2.5-2.7-4.3 0.1-1.2 0.6-2.1 1.4-2.9 3.9-3.9 7.7-7.7 11.6-11.6 0.3-0.3 0.5-0.5 0.9-0.9 -5.3-0.6-10-1.8-14.1-5 -0.5-0.4-1-0.8-1.5-1.2 -1.8-1.7-2-3.7-0.6-5.7 1.2-1.7 3.2-2.2 5.3-1.2 0.4 0.2 0.8 0.4 1.2 0.7 7.6 5.2 18 5.4 25.6 0.2 0.8-0.6 1.6-1 2.5-1.3 1.8-0.5 3.5 0.2 4.5 1.8C69.6 52.9 69.6 54.6 68.2 56.1z" class="a"/></svg>
 
