<?xml version="1.0" encoding="utf-8"?>
<!-- Generator: Adobe Illustrator 23.0.0, SVG Export Plug-In . SVG Version: 6.00 Build 0)  -->
<svg version="1.1" id="Capa_1" xmlns="http://www.w3.org/2000/svg" xmlns:xlink="http://www.w3.org/1999/xlink" x="0px" y="0px"
	 viewBox="0 0 512.1 512.1" style="enable-background:new 0 0 512.1 512.1;" xml:space="preserve">
<style type="text/css">
	.st0{fill:#FFFFFF;}
</style>
<g>
	<g>
		<path class="st0" d="M208,0C93.3,0,0,93.3,0,208c0,39.4,10.9,77.3,31.6,110.1L1.1,394.1c-2.4,6-1,12.7,3.6,17.3
			c3.1,3,7.2,4.7,11.3,4.7c2,0,4-0.4,6-1.2l75.9-30.4C130.7,405.1,168.6,416,208,416c114.7,0,208-93.3,208-208S322.7,0,208,0z
			 M208,384c-35.9,0-70.1-10.6-99.2-30.7c-2.7-1.9-5.9-2.8-9.1-2.8c-2,0-4,0.4-6,1.2l-49,19.6l19.6-49c2-5,1.3-10.7-1.7-15.1
			C42.6,278.2,32,243.9,32,208C32,111,111,32,208,32S384,111,384,208S305.1,384,208,384z"/>
	</g>
</g>
<g>
	<g>
		<path class="st0" d="M486.1,428.1c17-27.5,25.9-59.2,25.9-92c0-39.6-12.8-76.9-37-108c-5.4-7-15.5-8.3-22.5-2.9
			c-7,5.4-8.3,15.5-2.8,22.5c19.7,25.5,30.2,56,30.2,88.4c0,29.3-8.7,57.4-25,81.2c-3,4.4-3.6,10-1.7,15l14,35.2l-35.2-14
			c-5-2-10.6-1.4-15,1.7c-50.1,34.5-121.1,32.5-169.6-5.2c-7-5.4-17-4.1-22.5,2.8c-5.4,7-4.2,17,2.8,22.5
			c57,44.3,139.4,48.4,200.1,11l62,24.8c2,0.7,4,1.1,6,1.1c4.2,0,8.3-1.6,11.3-4.7c4.5-4.5,5.9-11.3,3.6-17.2L486.1,428.1z"/>
	</g>
</g>
</svg>
