<?xml version="1.0" encoding="utf-8"?>
<!-- Generator: Adobe Illustrator 23.0.0, SVG Export Plug-In . SVG Version: 6.00 Build 0)  -->
<svg version="1.1" id="Capa_1" xmlns="http://www.w3.org/2000/svg" xmlns:xlink="http://www.w3.org/1999/xlink" x="0px" y="0px"
	 viewBox="0 0 512 512" style="enable-background:new 0 0 512 512;" xml:space="preserve">
<style type="text/css">
	.st0{fill:#FFFFFF;}
</style>
<g>
	<g>
		<path class="st0" d="M345.8,122.1H104.9c-8.3,0-15,6.7-15,15s6.7,15,15,15h240.8c8.3,0,15-6.7,15-15
			C360.7,128.8,354,122.1,345.8,122.1z"/>
	</g>
</g>
<g>
	<g>
		<path class="st0" d="M315.8,212H104.9c-8.3,0-15,6.7-15,15s6.7,15,15,15h210.9c8.3,0,15-6.7,15-15
			C330.8,218.7,324.1,212,315.8,212z"/>
	</g>
</g>
<g>
	<g>
		<path class="st0" d="M225.8,302H104.9c-8.3,0-15,6.7-15,15c0,8.3,6.7,15,15,15h120.9c8.3,0,15-6.7,15-15
			C240.8,308.7,234.1,302,225.8,302z"/>
	</g>
</g>
<g>
	<g>
		<path class="st0" d="M498.8,162.9c-13.3-13.3-32.8-16.5-49.1-9.7v-138c0-8.3-6.7-15-15-15h-59c-8.3,0-15,6.7-15,15
			c0,8.3-6.7,15-15,15s-15-6.7-15-15c0-8.3-6.7-15-15-15h-60c-8.3,0-15,6.7-15,15c0,8.3-6.7,15-15,15s-15-6.7-15-15
			c0-8.3-6.7-15-15-15h-61c-8.3,0-15,6.7-15,15c0,8.3-6.7,15-15,15s-15-6.7-15-15c0-8.3-6.7-15-15-15H15c-8.3,0-15,6.7-15,15v481.7
			c0,8.3,6.7,15,15,15h419.7c8.3,0,15-6.7,15-15v-221c35.9-36.1,21.3-21.5,49.1-49.3C516.4,208.9,516.4,180.5,498.8,162.9z
			 M419.7,481.8H30V30.2h32.5c6.2,17.4,22.9,30,42.4,30s36.2-12.5,42.4-30h36.1c6.2,17.4,22.9,30,42.4,30s36.2-12.5,42.4-30h35.1
			c6.2,17.4,22.9,30,42.4,30s36.2-12.5,42.4-30h31.5v148.3c-8.7,8.7,19.1-19.2-154.4,155.4c-1.7,1.7-2.9,3.7-3.6,6l-16.8,52.1h-140
			c-8.3,0-15,6.7-15,15s6.7,14.9,15,14.9h150.9c0,0,0,0,0,0c1.5,0,3.2-0.2,4.6-0.6c0,0,0,0,0,0l62.5-20.1c2.3-0.7,4.4-2,6-3.7
			c2.4-2.4,88.4-89,90.7-91.3L419.7,481.8L419.7,481.8z M294.6,346.9l21.2,21.2l-5.5,5.5L279,383.7l10.1-31.3L294.6,346.9z
			 M336.9,346.8l-21.2-21.2l109-109.7l21.2,21.2C441.9,241.1,341.6,342.1,336.9,346.8z M477.6,205.3L467,215.9l-21.2-21.2l10.6-10.6
			c5.8-5.8,15.4-5.8,21.2,0C483.5,189.9,483.5,199.4,477.6,205.3z"/>
	</g>
</g>
</svg>
